<svg id="Слой_1" data-name="Слой 1" xmlns="http://www.w3.org/2000/svg" viewBox="0 0 794.75 107.04"><defs><style>.cls-1{fill:#b8629b;}.cls-2{fill:#fff;}.cls-3{fill:#6dbbb6;}.cls-4{fill:#b16496;}</style></defs><title>logo</title><path class="cls-1" d="M197.87,399c0,.25-.06.49-.12.72s-.08.35-.13.51a19.93,19.93,0,0,1,5.59-1.37c-2-6.28-5.63-13-7.79-13a1,1,0,0,0-.59.21,16.86,16.86,0,0,0-5.83,7.17A60.23,60.23,0,0,1,196.4,400l0-.07.11-.23.12-.27c.08-.18.14-.39.21-.59s.13-.43.17-.66.1-.47.13-.71.07-.48.08-.72,0-.48,0-.71,0-.46,0-.67,0-.42,0-.6c0-.38-.07-.68-.09-.9l0-.34.1.33c.06.21.17.51.25.88l.14.6c0,.21.08.44.13.68s.07.48.1.73a7.5,7.5,0,0,1,.06.77c0,.26,0,.52,0,.78S197.89,398.75,197.87,399Z" transform="translate(-99.29 -339.58)"/><path class="cls-1" d="M166.48,415.55a15.75,15.75,0,0,0-7.79,2.19l-.8.47-.72.47a29.29,29.29,0,0,0-4.53,3.84c-.2,1.09,1.79,3.36,3.39,5.2.77.88,1.58,1.8,2.27,2.69,1.79,2.33,2.46,4.32,2,6.08-.39,1.57-1.65,2.87-3.77,3.86a1.59,1.59,0,0,0-.4,1.17,4.07,4.07,0,0,1,2.94-1.31.84.84,0,0,1,.2,0l.05-.15a5.34,5.34,0,0,1,.23-.51,3.82,3.82,0,0,1,.32-.49,2.86,2.86,0,0,1,.4-.43,1.76,1.76,0,0,1,.5-.3,1.07,1.07,0,0,1,.55-.05.78.78,0,0,1,.24.07l.11,0,.09.07a1.61,1.61,0,0,1,.16.13l.11.14a1,1,0,0,1,.16.24l.12.22-.16-.19a1,1,0,0,0-.19-.2l-.13-.11-.16-.09-.08,0-.09,0a.47.47,0,0,0-.2,0,.79.79,0,0,0-.4.11,1.5,1.5,0,0,0-.35.3,2.43,2.43,0,0,0-.26.41,3.32,3.32,0,0,0-.19.45,4.51,4.51,0,0,0-.12.47,9.14,9.14,0,0,0,.08,1.07c.06.3.11.65.17,1a13.94,13.94,0,0,0,.51,2.56,11.88,11.88,0,0,0,1.9-2.13c.53-.71.9-1.19,1.34-1.34a2.17,2.17,0,0,1,0-.24,4.64,4.64,0,0,1,.32-1.46,3.93,3.93,0,0,1,.41-.75,2.34,2.34,0,0,1,.66-.62,1.61,1.61,0,0,1,.89-.24,2,2,0,0,1,.82.25,2.85,2.85,0,0,1,.62.44,2.24,2.24,0,0,1,.42.53,2.33,2.33,0,0,1,.3.95,1.8,1.8,0,0,1,0,.37,1.89,1.89,0,0,0,0-.37,2.19,2.19,0,0,0-.39-.87,2.1,2.1,0,0,0-.44-.44,2.54,2.54,0,0,0-.61-.34,1.69,1.69,0,0,0-.68-.13,1.13,1.13,0,0,0-.61.25,1.78,1.78,0,0,0-.44.53,3.37,3.37,0,0,0-.26.65,4.55,4.55,0,0,0-.12.66,4.67,4.67,0,0,0,0,.6,2.56,2.56,0,0,0,0,.4v.1l.08.34.09.26s1.38,3.69,1.66,4.22a8.46,8.46,0,0,0,1.84-3.7l0-.09,0-.08a1.45,1.45,0,0,1,1.26-.81c1.36,0,2.51,2.1,3.18,3.67a4.77,4.77,0,0,0,.4-1.05,34,34,0,0,0,.51-3.72.79.79,0,0,0,0-.1,1.53,1.53,0,0,0,0-.23,2.49,2.49,0,0,0-.07-.32,2.73,2.73,0,0,0-.36-.78h0a2.23,2.23,0,0,0-.7-.68,1,1,0,0,0-.91-.11,1.1,1.1,0,0,0-.39.25,1.69,1.69,0,0,0-.29.34,2.79,2.79,0,0,0-.2.33c0,.11-.09.2-.12.28l-.09.24.06-.26c0-.08,0-.18.08-.29a3.06,3.06,0,0,1,.15-.37,1.93,1.93,0,0,1,.25-.42,1.39,1.39,0,0,1,.43-.37,1.33,1.33,0,0,1,.61-.17,1.69,1.69,0,0,1,.65.12l.26.12a8.21,8.21,0,0,0-1.23-2.7,22.59,22.59,0,0,1-3.46-6.89l-.2-.36-.29-.55-.1-.17c-.09-.16-.18-.32-.29-.49s-.31-.49-.5-.75a9,9,0,0,0-.64-.78,4.36,4.36,0,0,0-.37-.38c-.13-.12-.26-.26-.4-.38a9.53,9.53,0,0,0-.9-.68,9.35,9.35,0,0,0-1-.59,4.39,4.39,0,0,0-.5-.25l-.5-.23c-.33-.15-.67-.25-1-.37s-.62-.19-.9-.27-.54-.16-.78-.2l-.61-.12-.53-.11.54,0,.62.05c.24,0,.51.07.8.11s.62.08.95.17.69.15,1,.26l.55.18a4.28,4.28,0,0,1,.55.2,9.91,9.91,0,0,1,1.1.51,10.21,10.21,0,0,1,1,.62c.17.11.32.24.48.36a4.67,4.67,0,0,1,.46.37,10.81,10.81,0,0,1,.81.78c.24.27.46.52.65.77s.35.47.5.68l.35.51.09.12c.34,0,.93.06,1.66.06,3.14,0,5.47-.58,6.61-1.6a2.6,2.6,0,0,0,.51-.62l0,0a2.27,2.27,0,0,0,.24-.67c.21-1-.2-2.38-1.22-4S172.27,415.55,166.48,415.55Z" transform="translate(-99.29 -339.58)"/><path class="cls-1" d="M178.58,382.34a75,75,0,0,0-7.18-4.11l-.61-.31.48-.48c.26-.26.73-.36,1.73-.36.57,0,1.24,0,1.89.07h.17c-2.68-1.29-8.85-2.73-13.21-3.75-1.45-.34-2.81-.66-4-.95a11.42,11.42,0,0,0-2.76-.31,17.4,17.4,0,0,0-8.91,2.42l-.1.08q3.63.77,6.75,1.57c14.67,3.72,21.19,7.61,23.53,9l.07,0a9.06,9.06,0,0,0-3.2-2.2l-2.31-1h2.5C173.59,382.1,176.08,382.1,178.58,382.34Z" transform="translate(-99.29 -339.58)"/><path class="cls-1" d="M124,385.88a6.56,6.56,0,0,0-3.43-1.21c-2.25,0-3.65,2.05-4.28,4.53-.08.29-.14.6-.19.9s-.1.64-.13,1,0,.58-.06.87l-.07,2.18-1.27-1.78c-1.22-1.7-2.91-3.65-5.23-3.65a6.28,6.28,0,0,0-3.47,1.26c-4.46,3.05-2.16,18.6-1.41,20.18.62,1.31.39,4.38.06,6.64.44-.75,1-1.93,1.76-3.56l.48-1,.75.86a13.1,13.1,0,0,1,1.57,4.51,12.35,12.35,0,0,0,.38-4.75l-.13-2.15,1.42,1.62a20.77,20.77,0,0,1,2.85,4.88c.23-1.13,0-2.44-.87-5.36l-.57-1.84,1.65,1a12.75,12.75,0,0,1,2.56,2.41,4.27,4.27,0,0,0,0-2.18,7.85,7.85,0,0,0-1.21-1.38,60.64,60.64,0,0,1-4.08-5.27c-.34-.5-.67-1-1-1.53s-.6-1-.86-1.53-.49-1-.68-1.5a10.68,10.68,0,0,1-.44-1.41,5.25,5.25,0,0,1-.12-.65l0-.3c0-.1,0-.2,0-.29s0-.18,0-.27l0-.25a2.21,2.21,0,0,1,.06-.43l.08-.34.1-.24.08-.2-.07.21-.08.24-.05.34a2.26,2.26,0,0,0,0,.43c0,.08,0,.16,0,.24l0,.26c0,.09,0,.18,0,.28l.06.29a5.51,5.51,0,0,0,.17.62,10.3,10.3,0,0,0,.54,1.33c.23.46.48.93.77,1.41s.61,1,1,1.43.7,1,1.07,1.42a59.76,59.76,0,0,0,4.4,4.86l.18.18,1.16,1.13.16.13a6.39,6.39,0,0,1,.46.45,3.42,3.42,0,0,0,2.43,1.35c1.43,0,3.22-1.19,5.31-3.55a11.47,11.47,0,0,0,2.51-6.58c0-.29.05-.59.07-.88s0-.61,0-.91a26.16,26.16,0,0,0-.25-3.79C127.44,391.31,125.42,386.75,124,385.88Z" transform="translate(-99.29 -339.58)"/><path class="cls-1" d="M246.64,411.29c-1.14-2.65-1.78-2.42-4.45-1.44-.71.26-1.52.56-2.45.83-4.13,1.2-16.37-2.9-20.76-5.21-.35-.18-.64-.35-.88-.51a4,4,0,0,1-.47-.35.83.83,0,0,1-.12-.15,9.73,9.73,0,0,0-.79-1.07A5.78,5.78,0,0,0,215,402a4.92,4.92,0,0,0-3.28-.41l-.11,0,.16.15.57.56,0,0c.18.17.34.37.51.55l.23.25.32.35.49.62.09.11.37.46a2.57,2.57,0,0,1,.16.22l.22.31.6.87.17.24-.32-.33-.61-.63c-.13-.13-.27-.29-.43-.43l0,0-.54-.48-.09-.08-.49-.44-.63-.49-.33-.25-.18-.13-.13-.1-.63-.43-.37-.25h0l-.08,0-.14-.09-.09-.05a12.22,12.22,0,0,0-5.31-1.77,10,10,0,0,1-1.19,0c-2.63-.46-11,2.89-11.14,2.74a9.88,9.88,0,0,1,1.39-1.17l.46-.27.76-.41.07,0q-.83-.91-1.71-1.78c-1.18-1.17-2.42-2.29-3.71-3.37l-.27-.23-.27-.22-1-.78-.12-.09-.52-.4-.64-.49c-18-13.41-42.25-18-42.55-18.06l-.08,0c-13-3.89-17.75-10.58-17.84-15.55-.07-4.08,2.78-7.41,7.84-9.12,6.56-2.22,26.77-1.56,46.46,2.65-.59-.19-1.21-.38-1.85-.56l-2.25-.66c-.77-.22-1.57-.48-2.4-.69l-2.56-.68c-1.74-.49-3.6-.91-5.53-1.36-.48-.11-1-.24-1.47-.34l-1.5-.31c-1-.2-2-.43-3.09-.61l-3.21-.55c-.54-.1-1.09-.17-1.65-.24l-1.68-.22a81.32,81.32,0,0,0-14.21-.67,45.46,45.46,0,0,0-7.4,1,28.81,28.81,0,0,0-7.14,2.52l-.84.45c-.28.15-.53.34-.8.51l-.79.52-.74.59a16.55,16.55,0,0,0-1.4,1.27c-.23.22-.42.47-.63.7a6.33,6.33,0,0,0-.59.74l-.55.77-.47.82a6.89,6.89,0,0,0-.42.84,6.34,6.34,0,0,0-.35.87,11,11,0,0,0-.69,3.66,9.13,9.13,0,0,0,.61,3.61l.16.4.22.4.21.4c.08.13.17.26.26.38a6.82,6.82,0,0,0,.54.75c.2.23.38.49.6.71a17.7,17.7,0,0,0,2.85,2.47,29.86,29.86,0,0,0,3.25,2,60.6,60.6,0,0,0,6.95,3.17c2.36.92,4.73,1.74,7.08,2.5,4.69,1.56,9.31,2.84,13.68,4.16l3.23,1c1.09.34,2.1.69,3.12,1s2,.74,3,1.12,1.92.77,2.83,1.18a71.63,71.63,0,0,1,9.65,5.15l1,.65,1,.66.92.64.86.65.83.63.76.63.73.6.67.6a32.08,32.08,0,0,1,3.77,3.89c.41.47.67.88.86,1.14l.29.4-.15.11-.31-.37c-.21-.24-.49-.62-.93-1.06a33.85,33.85,0,0,0-3.95-3.6l-.69-.55-.75-.55-.79-.58-.84-.57-.87-.6-.93-.59-1-.61-1-.59a76.34,76.34,0,0,0-9.67-4.7c-.91-.37-1.86-.71-2.81-1.08s-1.94-.67-3-1-2.08-.65-3.11-.94l-3.24-.91c-2.19-.6-4.45-1.24-6.75-1.91s-4.65-1.37-7-2.14-4.77-1.64-7.17-2.61a58.85,58.85,0,0,1-7.11-3.37,31.41,31.41,0,0,1-3.38-2.19,19.4,19.4,0,0,1-3.06-2.75,11.88,11.88,0,0,1-2.25-3.6l-.2-.53c-.05-.17-.08-.33-.13-.49l-.12-.48,0-.11v-.07l0-.13,0-.26a7.53,7.53,0,0,1-.1-1.05,9.12,9.12,0,0,1,0-1.06,12.43,12.43,0,0,1,.83-4.1,7.7,7.7,0,0,1,.41-1,8.11,8.11,0,0,1,.47-.93l.53-.89.61-.84a7.83,7.83,0,0,1,.66-.8c.23-.25.45-.52.7-.76a18.11,18.11,0,0,1,1.54-1.36l.81-.62.85-.55c.29-.18.56-.38.86-.53l.89-.47a30,30,0,0,1,7.47-2.54,46.32,46.32,0,0,1,7.6-.9,80.22,80.22,0,0,1,14.37.87l1.68.25c.56.08,1.11.16,1.66.27l3.22.6c1.06.21,2.08.46,3.1.67l1.51.33c.49.11,1,.25,1.46.37,1.93.49,3.78.95,5.53,1.46l2.55.72c.83.23,1.62.5,2.39.74l2.24.7c.72.22,1.42.44,2.08.68l3.18,1.08a107.68,107.68,0,0,1,24.42,8.59c-5.73-4.56-16.14-10.85-28.58-15.73-14.87-5.82-36.85-11.37-57.16-4.72-10.81,3.54-17.22,8.93-19,16-3.48,13.51,10.74,29,10.88,29.12v0c.9-2.64,2.68-4.65,5.42-4.65a8,8,0,0,1,4.22,1.44c1.91,1.22,4.06,6.43,4.78,11.62a26.45,26.45,0,0,1,.23,5.09l.43.32A141.86,141.86,0,0,0,157,417a17.61,17.61,0,0,1,9.45-2.93c6.47,0,11.08,4.08,12.31,6.06s1.72,3.78,1.38,5.21l.16.07c.1.06,10,5.76,30.33.23-4.51.35-11.58,1-12.61,1.08-4.8.21-8.53-11.63-8.11-12.3a11.12,11.12,0,0,1,1.29,2.24c1.59,3,3.21,9,7.23,8.57,3.57-.39,8.18-.75,13.07-1.12l4.9-.38c6.49-.52,13.25-1.12,18.7-1.94,6.56-1,9.3-2,10.43-2.76-.54,0-1,.06-1.49.06a8.65,8.65,0,0,1-5-1.28c-.65-.38-.87-.51-1.45-.29a23.06,23.06,0,0,1-10.14,1.08,13.8,13.8,0,0,1-2.13-.6c-1.39-.48-2.82-1-6.9-.82a22.15,22.15,0,0,1-8.42-.7c-3.07-1-3.94-2.55-4-2.65a5,5,0,0,0-2.65-2.38,7,7,0,0,0-3-.47,8.81,8.81,0,0,0-1.68.26c-4,1-7.11-1.69-6.85-2s3.19,1.38,6.49.54a8.85,8.85,0,0,1,6.37.6,6.47,6.47,0,0,1,1.88,1.51,6.21,6.21,0,0,1,.82,1.23s1.16,1.88,5.7,2.47l.29,0a26.36,26.36,0,0,0,5,0c4.39-.18,6,.37,7.47.9a12.81,12.81,0,0,0,1.92.55,21.82,21.82,0,0,0,8.43-.7c.33-.09.64-.2.91-.3a2.75,2.75,0,0,1,2.73.39,7.3,7.3,0,0,0,1.48.7,8.75,8.75,0,0,0,2.45.38,19.45,19.45,0,0,0,3.24-.22h0a.61.61,0,0,0,.47-.36C247.88,416.26,247.94,414.3,246.64,411.29Zm-44.74-8.1a.74.74,0,0,1,.7-.51h0c5.3.11,7.63.37,8.31,1.68a2.07,2.07,0,0,1-.34,2.17,1.41,1.41,0,0,1-1.27.58h0c-1.89,0-5.94-2.29-7.12-3.08A.74.74,0,0,1,201.9,403.2Z" transform="translate(-99.29 -339.58)"/><path class="cls-1" d="M209.79,405.91h.15c.37-.59.37-.87.33-.94-.4-.76-3.44-1.1-6.49-1.26,2.31,1.17,4.79,2.2,6,2.2Z" transform="translate(-99.29 -339.58)"/><path class="cls-2" d="M193.92,398.93c0,.25-.06.49-.12.72s-.08.35-.13.51a19.93,19.93,0,0,1,5.59-1.37c-2-6.28-5.63-13-7.79-13a1,1,0,0,0-.59.21,16.86,16.86,0,0,0-5.83,7.16,60.23,60.23,0,0,1,7.39,6.68l0-.07.11-.23.12-.27c.08-.18.14-.39.21-.59s.13-.43.17-.66.1-.47.13-.71.07-.48.08-.72,0-.48,0-.71,0-.46,0-.67,0-.42,0-.6c0-.38-.07-.68-.09-.9l0-.34.1.33c.06.21.17.51.25.88l.14.6c0,.21.08.44.13.68s.07.48.1.73a7.5,7.5,0,0,1,.06.77c0,.26,0,.52,0,.78S193.94,398.68,193.92,398.93Z" transform="translate(-99.29 -339.58)"/><path class="cls-2" d="M162.52,415.49a15.75,15.75,0,0,0-7.79,2.19l-.8.47-.72.47a29.29,29.29,0,0,0-4.53,3.84c-.2,1.09,1.79,3.36,3.39,5.2.77.88,1.58,1.8,2.27,2.69,1.79,2.33,2.46,4.32,2,6.08-.39,1.57-1.65,2.87-3.77,3.86a1.59,1.59,0,0,0-.4,1.17,4.07,4.07,0,0,1,2.94-1.31.84.84,0,0,1,.2,0l.05-.15a5.34,5.34,0,0,1,.23-.51,3.82,3.82,0,0,1,.32-.49,2.86,2.86,0,0,1,.4-.43,1.76,1.76,0,0,1,.5-.3,1.07,1.07,0,0,1,.55-.05.78.78,0,0,1,.24.07l.11,0,.09.07a1.61,1.61,0,0,1,.16.13l.11.14a1,1,0,0,1,.16.24l.12.22-.16-.19a1,1,0,0,0-.19-.2l-.13-.11-.16-.09-.08,0-.09,0a.47.47,0,0,0-.2,0,.79.79,0,0,0-.4.11,1.5,1.5,0,0,0-.35.3,2.43,2.43,0,0,0-.26.41,3.32,3.32,0,0,0-.19.45,4.51,4.51,0,0,0-.12.47,9.14,9.14,0,0,0,.08,1.07c.06.3.11.65.17,1a13.94,13.94,0,0,0,.51,2.56,11.88,11.88,0,0,0,1.9-2.13c.53-.71.9-1.19,1.34-1.34a2.17,2.17,0,0,1,0-.24,4.64,4.64,0,0,1,.32-1.46,3.93,3.93,0,0,1,.41-.75,2.34,2.34,0,0,1,.66-.62,1.61,1.61,0,0,1,.89-.24,2,2,0,0,1,.82.25,2.85,2.85,0,0,1,.62.44,2.24,2.24,0,0,1,.42.53,2.33,2.33,0,0,1,.3.95,1.8,1.8,0,0,1,0,.37,1.89,1.89,0,0,0,0-.37,2.19,2.19,0,0,0-.39-.87,2.1,2.1,0,0,0-.44-.44,2.54,2.54,0,0,0-.61-.34,1.69,1.69,0,0,0-.68-.13,1.13,1.13,0,0,0-.61.25,1.78,1.78,0,0,0-.44.53,3.37,3.37,0,0,0-.26.65,4.55,4.55,0,0,0-.12.66,4.67,4.67,0,0,0,0,.6,2.56,2.56,0,0,0,0,.4v.1l.08.34.09.26s1.38,3.69,1.66,4.22a8.46,8.46,0,0,0,1.84-3.7l0-.09,0-.08a1.45,1.45,0,0,1,1.26-.81c1.36,0,2.51,2.1,3.18,3.67a4.77,4.77,0,0,0,.4-1.05,34,34,0,0,0,.51-3.72.79.79,0,0,0,0-.1,1.53,1.53,0,0,0,0-.23,2.49,2.49,0,0,0-.07-.32,2.73,2.73,0,0,0-.36-.78h0a2.23,2.23,0,0,0-.7-.68,1,1,0,0,0-.91-.11,1.1,1.1,0,0,0-.39.25,1.69,1.69,0,0,0-.29.34,2.79,2.79,0,0,0-.2.33c0,.11-.09.2-.12.28l-.09.24.06-.26c0-.08,0-.18.08-.29a3.06,3.06,0,0,1,.15-.37,1.93,1.93,0,0,1,.25-.42,1.39,1.39,0,0,1,.43-.37,1.33,1.33,0,0,1,.61-.17,1.69,1.69,0,0,1,.65.12l.26.12a8.21,8.21,0,0,0-1.23-2.7,22.59,22.59,0,0,1-3.46-6.89l-.2-.36-.29-.55-.1-.17c-.09-.16-.18-.32-.29-.49s-.31-.49-.5-.75a9,9,0,0,0-.64-.78,4.36,4.36,0,0,0-.37-.38c-.13-.12-.26-.26-.4-.38a9.53,9.53,0,0,0-.9-.68,9.35,9.35,0,0,0-1-.59,4.39,4.39,0,0,0-.5-.25l-.5-.23c-.33-.15-.67-.25-1-.37s-.62-.19-.9-.27-.54-.16-.78-.2l-.61-.12-.53-.11.54,0,.62.05c.24,0,.51.07.8.11s.62.08.95.17.69.15,1,.26l.55.18a4.28,4.28,0,0,1,.55.2,9.91,9.91,0,0,1,1.1.51,10.21,10.21,0,0,1,1,.62c.17.11.32.24.48.36a4.67,4.67,0,0,1,.46.37,10.81,10.81,0,0,1,.81.78c.24.27.46.52.65.77s.35.47.5.68l.35.51.09.12c.34,0,.93.06,1.66.06,3.14,0,5.47-.58,6.61-1.6a2.6,2.6,0,0,0,.51-.62l0,0a2.27,2.27,0,0,0,.24-.67c.21-1-.2-2.38-1.22-4S168.31,415.49,162.52,415.49Z" transform="translate(-99.29 -339.58)"/><path class="cls-2" d="M174.63,382.27a75,75,0,0,0-7.18-4.11l-.61-.31.48-.48c.26-.26.73-.36,1.73-.36.57,0,1.24,0,1.89.07h.17c-2.68-1.29-8.85-2.73-13.21-3.75-1.45-.34-2.81-.66-4-.95a11.42,11.42,0,0,0-2.76-.31,17.4,17.4,0,0,0-8.91,2.42l-.1.08q3.63.77,6.75,1.57c14.67,3.72,21.19,7.61,23.53,9l.07,0a9.06,9.06,0,0,0-3.2-2.2L167,382h2.5C169.63,382,172.13,382,174.63,382.27Z" transform="translate(-99.29 -339.58)"/><path class="cls-2" d="M120.09,385.82a6.56,6.56,0,0,0-3.43-1.21c-2.25,0-3.65,2.05-4.28,4.53-.08.29-.14.6-.19.9s-.1.64-.13,1,0,.58-.06.87l-.07,2.18-1.27-1.78c-1.22-1.7-2.91-3.65-5.23-3.65a6.28,6.28,0,0,0-3.47,1.26c-4.46,3.05-2.16,18.6-1.41,20.18.62,1.31.39,4.38.06,6.64.44-.75,1-1.93,1.76-3.56l.48-1,.75.86a13.1,13.1,0,0,1,1.57,4.51,12.35,12.35,0,0,0,.38-4.75l-.13-2.15,1.42,1.62a20.77,20.77,0,0,1,2.85,4.88c.23-1.13,0-2.44-.87-5.36l-.57-1.84,1.65,1a12.75,12.75,0,0,1,2.56,2.41,4.27,4.27,0,0,0,0-2.18,7.85,7.85,0,0,0-1.21-1.38,60.64,60.64,0,0,1-4.08-5.27c-.34-.5-.67-1-1-1.53s-.6-1-.86-1.53-.49-1-.68-1.5a10.68,10.68,0,0,1-.44-1.41,5.25,5.25,0,0,1-.12-.65l0-.3c0-.1,0-.2,0-.29s0-.18,0-.27l0-.25a2.21,2.21,0,0,1,.06-.43l.08-.34.1-.24.08-.2-.07.21-.08.24-.05.34a2.26,2.26,0,0,0,0,.43c0,.08,0,.16,0,.24l0,.26c0,.09,0,.18,0,.28l.06.29a5.51,5.51,0,0,0,.17.62,10.3,10.3,0,0,0,.54,1.33c.23.46.48.93.77,1.41s.61,1,1,1.43.7,1,1.07,1.42a59.76,59.76,0,0,0,4.4,4.86l.18.18,1.16,1.13.16.13a6.39,6.39,0,0,1,.46.45,3.42,3.42,0,0,0,2.43,1.35c1.43,0,3.22-1.19,5.31-3.55a11.47,11.47,0,0,0,2.51-6.58c0-.29.05-.59.07-.88s0-.61,0-.91a26.16,26.16,0,0,0-.25-3.79C123.49,391.25,121.46,386.69,120.09,385.82Z" transform="translate(-99.29 -339.58)"/><path class="cls-2" d="M242.69,411.23c-1.14-2.65-1.78-2.42-4.45-1.44-.71.26-1.52.56-2.45.83-4.13,1.2-16.37-2.9-20.76-5.21-.35-.18-.64-.35-.88-.51a4,4,0,0,1-.47-.35.83.83,0,0,1-.12-.15,9.73,9.73,0,0,0-.79-1.07,5.78,5.78,0,0,0-1.69-1.4,4.92,4.92,0,0,0-3.28-.41l-.11,0,.16.15.57.56,0,0c.18.17.34.37.51.55l.23.25.32.35.49.62.09.11.37.46a2.57,2.57,0,0,1,.16.22l.22.31.6.87.17.24-.32-.33-.61-.63c-.13-.13-.27-.29-.43-.43l0,0-.54-.48-.09-.08-.49-.44-.63-.49-.33-.25L208,403l-.13-.1-.63-.43-.37-.25h0l-.08,0-.14-.09-.09-.05a12.22,12.22,0,0,0-5.31-1.77,10,10,0,0,1-1.19,0c-2.63-.46-11,2.89-11.14,2.74a9.88,9.88,0,0,1,1.39-1.17l.46-.27.76-.41.07,0q-.83-.91-1.71-1.78c-1.18-1.17-2.42-2.29-3.71-3.37l-.27-.23-.27-.22-1-.78-.12-.09-.52-.4-.64-.49c-18-13.41-42.25-18-42.55-18.06l-.08,0c-13-3.89-17.75-10.58-17.84-15.55-.07-4.08,2.78-7.41,7.84-9.12,6.56-2.22,26.77-1.56,46.46,2.65-.59-.19-1.21-.38-1.85-.56l-2.25-.66c-.77-.22-1.57-.48-2.4-.69l-2.56-.68c-1.74-.49-3.6-.91-5.53-1.36-.48-.11-1-.24-1.47-.34l-1.5-.31c-1-.2-2-.43-3.09-.61l-3.21-.55c-.54-.1-1.09-.17-1.65-.24l-1.68-.22a81.32,81.32,0,0,0-14.21-.67,45.46,45.46,0,0,0-7.4,1,28.81,28.81,0,0,0-7.14,2.52l-.84.45c-.28.15-.53.34-.8.51l-.79.52-.74.59a16.55,16.55,0,0,0-1.4,1.27c-.23.22-.42.47-.63.7a6.33,6.33,0,0,0-.59.74l-.55.77-.47.82a6.89,6.89,0,0,0-.42.84,6.34,6.34,0,0,0-.35.87A11,11,0,0,0,113,362a9.13,9.13,0,0,0,.61,3.61l.16.4.22.4.21.4c.08.13.17.26.26.38a6.82,6.82,0,0,0,.54.75c.2.23.38.49.6.71a17.7,17.7,0,0,0,2.85,2.47,29.86,29.86,0,0,0,3.25,2,60.6,60.6,0,0,0,6.95,3.17c2.36.92,4.73,1.74,7.08,2.5,4.69,1.56,9.31,2.84,13.68,4.16l3.23,1c1.09.34,2.1.69,3.12,1s2,.74,3,1.12,1.92.77,2.83,1.18a71.63,71.63,0,0,1,9.65,5.15l1,.65,1,.66.92.64.86.65.83.63.76.63.73.6.67.6a32.08,32.08,0,0,1,3.77,3.89c.41.47.67.88.86,1.14l.29.4-.15.11-.31-.37c-.21-.24-.49-.62-.93-1.06a33.85,33.85,0,0,0-3.95-3.6l-.69-.55-.75-.55-.79-.58-.84-.57-.87-.6-.93-.59-1-.61-1-.59a76.34,76.34,0,0,0-9.67-4.7c-.91-.37-1.86-.71-2.81-1.08s-1.94-.67-3-1-2.08-.65-3.11-.94l-3.24-.91c-2.19-.6-4.45-1.24-6.75-1.91s-4.65-1.37-7-2.14-4.77-1.64-7.17-2.61a58.85,58.85,0,0,1-7.11-3.37,31.41,31.41,0,0,1-3.38-2.19,19.4,19.4,0,0,1-3.06-2.75,11.88,11.88,0,0,1-2.25-3.6l-.2-.53c-.05-.17-.08-.33-.13-.49l-.12-.48,0-.11v-.07l0-.13,0-.26a7.53,7.53,0,0,1-.1-1.05,9.12,9.12,0,0,1,0-1.06,12.43,12.43,0,0,1,.83-4.1,7.7,7.7,0,0,1,.41-1,8.11,8.11,0,0,1,.47-.93l.53-.89.61-.84a7.83,7.83,0,0,1,.66-.8c.23-.25.45-.52.7-.76a18.11,18.11,0,0,1,1.54-1.36l.81-.62.85-.55c.29-.18.56-.38.86-.53l.89-.47a30,30,0,0,1,7.47-2.54,46.32,46.32,0,0,1,7.6-.9,80.22,80.22,0,0,1,14.37.87l1.68.25c.56.08,1.11.17,1.66.27l3.22.6c1.06.21,2.08.46,3.1.67l1.51.33c.49.11,1,.25,1.46.37,1.93.49,3.78.95,5.53,1.46l2.55.72c.83.23,1.62.5,2.39.74l2.24.7c.72.22,1.42.44,2.08.68l3.18,1.08a107.68,107.68,0,0,1,24.42,8.59c-5.73-4.56-16.14-10.85-28.58-15.73-14.87-5.82-36.85-11.37-57.16-4.72-10.81,3.54-17.22,8.93-19,16-3.48,13.51,10.74,29,10.88,29.12v0c.9-2.64,2.68-4.65,5.42-4.65a8,8,0,0,1,4.22,1.44c1.91,1.22,4.06,6.43,4.78,11.62a26.45,26.45,0,0,1,.23,5.09l.43.32a141.86,141.86,0,0,0,26.75,15.35,17.61,17.61,0,0,1,9.45-2.93c6.47,0,11.08,4.08,12.31,6.06s1.72,3.78,1.38,5.21l.16.07c.1.06,10,5.76,30.33.23-4.51.35-11.58,1-12.61,1.08-4.8.21-8.53-11.63-8.11-12.3a11.12,11.12,0,0,1,1.29,2.24c1.59,3,3.21,9,7.23,8.57,3.57-.39,8.18-.75,13.07-1.12l4.9-.38c6.49-.52,13.25-1.12,18.7-1.94,6.56-1,9.3-2,10.43-2.76-.54,0-1,.06-1.49.06a8.65,8.65,0,0,1-5-1.28c-.65-.38-.87-.51-1.45-.29a23.06,23.06,0,0,1-10.14,1.08,13.8,13.8,0,0,1-2.13-.6c-1.39-.48-2.82-1-6.9-.82a22.15,22.15,0,0,1-8.42-.7c-3.07-1-3.94-2.55-4-2.65a5,5,0,0,0-2.65-2.38,7,7,0,0,0-3-.47,8.81,8.81,0,0,0-1.68.26c-4,1-7.11-1.69-6.85-2s3.19,1.38,6.49.54a8.85,8.85,0,0,1,6.37.6,6.47,6.47,0,0,1,1.88,1.51,6.21,6.21,0,0,1,.82,1.23s1.16,1.88,5.7,2.47l.29,0a26.36,26.36,0,0,0,5,0c4.39-.18,6,.37,7.47.9a12.81,12.81,0,0,0,1.92.55,21.82,21.82,0,0,0,8.43-.7c.33-.09.64-.2.91-.3a2.75,2.75,0,0,1,2.73.39,7.3,7.3,0,0,0,1.48.7,8.75,8.75,0,0,0,2.45.38,19.45,19.45,0,0,0,3.24-.22h0a.61.61,0,0,0,.47-.36C243.93,416.2,244,414.23,242.69,411.23Zm-44.74-8.1a.74.74,0,0,1,.7-.51h0c5.3.11,7.63.37,8.31,1.68a2.07,2.07,0,0,1-.34,2.17,1.41,1.41,0,0,1-1.27.58h0c-1.89,0-5.94-2.29-7.12-3.08A.74.74,0,0,1,197.95,403.13Z" transform="translate(-99.29 -339.58)"/><path class="cls-2" d="M205.84,405.85H206c.37-.59.37-.87.33-.94-.4-.76-3.44-1.1-6.49-1.26,2.31,1.17,4.79,2.2,6,2.2Z" transform="translate(-99.29 -339.58)"/><path class="cls-3" d="M298.43,380.16v-5.75h-5.75v-5.75h-11.5v5.75h-5.75v34.5h5.75v5.75h11.5v-5.75h5.75v-5.75h5.75v11.5h-5.75v5.75h-23v-5.75h-5.75v-5.75h-5.75v-34.5h5.75v-5.75h5.75v-5.75h23v5.75h5.75v11.5Z" transform="translate(-99.29 -339.58)"/><path class="cls-3" d="M350.18,420.41h-5.75v-5.75h-5.75V397.41h-11.5v17.25h11.5v5.75H321.43v-5.75h-5.75V397.41h5.75v-5.75h17.25v-5.75H321.43v-5.75h23v5.75h5.75v28.75h5.75v5.75Z" transform="translate(-99.29 -339.58)"/><path class="cls-3" d="M390.43,437.66h-23v-5.75h23v-5.75h5.75v-5.75h-23v-5.75h-5.75v-34.5h11.5v34.5h17.25v-34.5h11.5v46h-5.75v5.75h-5.75v5.75Z" transform="translate(-99.29 -339.58)"/><path class="cls-3" d="M436.43,414.66v-23h-5.75v28.75h-11.5V380.16h17.25v5.75h5.75v-5.75h11.5v5.75h5.75v34.5h-11.5V391.66h-5.75v23Z" transform="translate(-99.29 -339.58)"/><path class="cls-3" d="M505.43,420.41h-5.75v-5.75h-5.75V397.41h-11.5v17.25h11.5v5.75H476.68v-5.75h-5.75V397.41h5.75v-5.75h17.25v-5.75H476.68v-5.75h23v5.75h5.75v28.75h5.75v5.75Z" transform="translate(-99.29 -339.58)"/><path class="cls-3" d="M557.18,420.41h-5.75v-34.5h-11.5v34.5h-11.5v-34.5h-5.75v-5.75h11.5v5.75h5.75v-5.75h17.25v5.75h5.75v34.5Z" transform="translate(-99.29 -339.58)"/><path class="cls-4" d="M579.44,417.58a3.07,3.07,0,0,1,3.3-3.35,3.44,3.44,0,0,1,2.5.88,3.3,3.3,0,0,1,.9,2.48,3.35,3.35,0,0,1-.9,2.4,3.28,3.28,0,0,1-2.5,1,3.15,3.15,0,0,1-2.4-1A3.35,3.35,0,0,1,579.44,417.58Z" transform="translate(-99.29 -339.58)"/><path class="cls-4" d="M603.19,397.28a15.91,15.91,0,0,1,4.85-1.8,26.54,26.54,0,0,1,5.3-.55,9.47,9.47,0,0,1,4.17.8,6.77,6.77,0,0,1,2.55,2.08,7.31,7.31,0,0,1,1.25,2.9,16.65,16.65,0,0,1,.33,3.27q0,1.9-.1,4.05t-.15,4.3a36.09,36.09,0,0,0,.3,4.75H625v3.25h-6.6l-.45-3.75h-.25a12.78,12.78,0,0,1-.9,1.15,8.18,8.18,0,0,1-1.58,1.38,10.18,10.18,0,0,1-2.38,1.18,9.91,9.91,0,0,1-3.31.5,8.56,8.56,0,0,1-5.87-1.9,6.57,6.57,0,0,1-2.16-5.2,7.53,7.53,0,0,1,1.13-4.25,7.11,7.11,0,0,1,3.24-2.6,14.84,14.84,0,0,1,5.09-1,34.28,34.28,0,0,1,6.7.4,17.74,17.74,0,0,0,.08-3.83,5.26,5.26,0,0,0-.8-2.42,3.36,3.36,0,0,0-1.76-1.27,8.92,8.92,0,0,0-2.78-.37,14.76,14.76,0,0,0-4.31.63q-2.06.63-3.66,1.27Zm7.4,20.15a7.33,7.33,0,0,0,2.6-.45,7.92,7.92,0,0,0,2.1-1.15,7.65,7.65,0,0,0,1.5-1.53,7.36,7.36,0,0,0,.9-1.58v-3.5a28.3,28.3,0,0,0-4.8-.45,13.45,13.45,0,0,0-3.8.47,5.3,5.3,0,0,0-2.5,1.47,3.74,3.74,0,0,0-.9,2.6,4.11,4.11,0,0,0,1.13,2.88A4.93,4.93,0,0,0,610.59,417.43Z" transform="translate(-99.29 -339.58)"/><path class="cls-4" d="M645.89,395.33H653v17.05a35.69,35.69,0,0,0,.3,4.7h3.35v3.25H650l-.15-4.25h-.2a10.49,10.49,0,0,1-3.44,3.5,9.54,9.54,0,0,1-5.18,1.35,12.8,12.8,0,0,1-3.91-.52,5.55,5.55,0,0,1-2.67-1.83,8.49,8.49,0,0,1-1.54-3.48,24.76,24.76,0,0,1-.5-5.42v-11H629v-3.35h7.3v13.55a35,35,0,0,0,.17,3.67,8.3,8.3,0,0,0,.72,2.75,3.72,3.72,0,0,0,1.61,1.7,6,6,0,0,0,2.85.58,6.53,6.53,0,0,0,4.49-1.7,10.84,10.84,0,0,0,2.9-4.25v-13h-3.2Z" transform="translate(-99.29 -339.58)"/><path class="cls-4" d="M659.34,395.33h6v-5l4-1.1v6h13.35v3.35H669.24v11.8q0,3.65,1.77,5.4a6.89,6.89,0,0,0,5.06,1.75,8.52,8.52,0,0,0,3.91-.85,21.14,21.14,0,0,0,3-1.85l1.29,3a14.06,14.06,0,0,1-4.17,2.25,15,15,0,0,1-5,.85,12.19,12.19,0,0,1-3.77-.57,8.66,8.66,0,0,1-3.12-1.78,8.49,8.49,0,0,1-2.15-3.08,11.36,11.36,0,0,1-.8-4.47v-12.4h-6Z" transform="translate(-99.29 -339.58)"/><path class="cls-4" d="M690.64,407.83q0-6,3.15-9.58t9-3.52a13.14,13.14,0,0,1,5.42,1,10.66,10.66,0,0,1,3.78,2.78,11.32,11.32,0,0,1,2.22,4.15,17.73,17.73,0,0,1,.73,5.15,17.26,17.26,0,0,1-.8,5.42,11.26,11.26,0,0,1-2.35,4.13A10.37,10.37,0,0,1,708,420a13.65,13.65,0,0,1-5.17.92,13.18,13.18,0,0,1-5.4-1,10.6,10.6,0,0,1-3.8-2.78,11.29,11.29,0,0,1-2.22-4.15A17.72,17.72,0,0,1,690.64,407.83Zm4.15,0a14.79,14.79,0,0,0,.42,3.5,9.57,9.57,0,0,0,1.37,3.15,7.12,7.12,0,0,0,2.47,2.25,7.5,7.5,0,0,0,3.71.85,7.3,7.3,0,0,0,6-2.48q2-2.47,2-7.27a14.74,14.74,0,0,0-.42-3.53,9.36,9.36,0,0,0-1.4-3.12,7.38,7.38,0,0,0-2.49-2.25,7.52,7.52,0,0,0-3.71-.85,7.26,7.26,0,0,0-6,2.45Q694.79,403,694.79,407.83Z" transform="translate(-99.29 -339.58)"/><path class="cls-4" d="M730.89,420.33V403.68q0-1.05-.07-2a6.85,6.85,0,0,0-.35-1.75,2.81,2.81,0,0,0-.8-1.23,2,2,0,0,0-1.37-.45,3.62,3.62,0,0,0-2.87,1.4,9.38,9.38,0,0,0-1.78,3.5v17.2h-3.8v-25h2.6l.75,3h.2q.5-.75,1-1.42a5.66,5.66,0,0,1,1.1-1.17,4.61,4.61,0,0,1,1.48-.78,7.11,7.11,0,0,1,2.15-.27,5.72,5.72,0,0,1,1.55.23,4.82,4.82,0,0,1,1.48.7,4.36,4.36,0,0,1,1.17,1.27,4.83,4.83,0,0,1,.65,1.95,10.56,10.56,0,0,1,2.57-3,6.28,6.28,0,0,1,3.93-1.1,5.65,5.65,0,0,1,2.67.55,4,4,0,0,1,1.6,1.57,7.31,7.31,0,0,1,.8,2.45,20.41,20.41,0,0,1,.23,3.17v17.85h-3.8v-17a18.49,18.49,0,0,0-.1-2,6.37,6.37,0,0,0-.37-1.62,2.7,2.7,0,0,0-.75-1.1,1.92,1.92,0,0,0-1.27-.4,3.74,3.74,0,0,0-3,1.4,9.3,9.3,0,0,0-1.8,4v16.7Z" transform="translate(-99.29 -339.58)"/><path class="cls-4" d="M753.19,397.28a15.9,15.9,0,0,1,4.85-1.8,26.54,26.54,0,0,1,5.3-.55,9.47,9.47,0,0,1,4.17.8,6.77,6.77,0,0,1,2.55,2.08,7.34,7.34,0,0,1,1.25,2.9,16.73,16.73,0,0,1,.32,3.27q0,1.9-.1,4.05t-.15,4.3a35.92,35.92,0,0,0,.3,4.75H775v3.25h-6.6l-.45-3.75h-.25a12.78,12.78,0,0,1-.9,1.15,8.2,8.2,0,0,1-1.58,1.38,10.21,10.21,0,0,1-2.38,1.18,9.9,9.9,0,0,1-3.31.5,8.56,8.56,0,0,1-5.87-1.9,6.57,6.57,0,0,1-2.16-5.2,7.53,7.53,0,0,1,1.13-4.25,7.12,7.12,0,0,1,3.24-2.6,14.84,14.84,0,0,1,5.09-1,34.29,34.29,0,0,1,6.7.4,17.73,17.73,0,0,0,.07-3.83,5.26,5.26,0,0,0-.8-2.42,3.36,3.36,0,0,0-1.76-1.27,8.92,8.92,0,0,0-2.78-.37,14.76,14.76,0,0,0-4.31.63q-2.06.63-3.66,1.27Zm7.4,20.15a7.34,7.34,0,0,0,2.6-.45,7.91,7.91,0,0,0,2.1-1.15,7.65,7.65,0,0,0,1.5-1.53,7.36,7.36,0,0,0,.9-1.58v-3.5a28.32,28.32,0,0,0-4.8-.45,13.45,13.45,0,0,0-3.8.47,5.31,5.31,0,0,0-2.5,1.47,3.74,3.74,0,0,0-.9,2.6,4.11,4.11,0,0,0,1.13,2.88A4.93,4.93,0,0,0,760.59,417.43Z" transform="translate(-99.29 -339.58)"/><path class="cls-4" d="M779.34,395.33h6v-5l4-1.1v6h13.35v3.35H789.24v11.8q0,3.65,1.77,5.4a6.89,6.89,0,0,0,5.06,1.75,8.52,8.52,0,0,0,3.91-.85,21.14,21.14,0,0,0,3-1.85l1.29,3a14.06,14.06,0,0,1-4.17,2.25,15,15,0,0,1-5,.85,12.19,12.19,0,0,1-3.77-.57,8.66,8.66,0,0,1-3.12-1.78,8.49,8.49,0,0,1-2.15-3.08,11.36,11.36,0,0,1-.8-4.47v-12.4h-6Z" transform="translate(-99.29 -339.58)"/><path class="cls-4" d="M813,420.33V417h8.7v-18.3H813v-3.35h12.65V417h8.5v3.35Zm7.3-32.1a3.31,3.31,0,0,1,.9-2.32,3,3,0,0,1,2.3-1,3.29,3.29,0,0,1,2.42,1,3.17,3.17,0,0,1,1,2.32,2.88,2.88,0,0,1-1,2.2,3.44,3.44,0,0,1-2.42.9,3.11,3.11,0,0,1-2.3-.9A3,3,0,0,1,820.34,388.23Z" transform="translate(-99.29 -339.58)"/><path class="cls-4" d="M840.64,407.83q0-6,3.15-9.58t9-3.52a13.14,13.14,0,0,1,5.42,1,10.66,10.66,0,0,1,3.78,2.78,11.32,11.32,0,0,1,2.22,4.15,17.73,17.73,0,0,1,.73,5.15,17.26,17.26,0,0,1-.8,5.42,11.26,11.26,0,0,1-2.35,4.13A10.37,10.37,0,0,1,858,420a13.65,13.65,0,0,1-5.17.92,13.18,13.18,0,0,1-5.4-1,10.6,10.6,0,0,1-3.8-2.78,11.29,11.29,0,0,1-2.22-4.15A17.72,17.72,0,0,1,840.64,407.83Zm4.15,0a14.79,14.79,0,0,0,.42,3.5,9.57,9.57,0,0,0,1.37,3.15,7.12,7.12,0,0,0,2.47,2.25,7.5,7.5,0,0,0,3.71.85,7.3,7.3,0,0,0,6-2.48q2-2.47,2-7.27a14.74,14.74,0,0,0-.42-3.53,9.36,9.36,0,0,0-1.4-3.12,7.38,7.38,0,0,0-2.49-2.25,7.52,7.52,0,0,0-3.71-.85,7.26,7.26,0,0,0-6,2.45Q844.79,403,844.79,407.83Z" transform="translate(-99.29 -339.58)"/><path class="cls-4" d="M872.44,404.08q0-.45,0-1.17t-.08-1.5q0-.78-.12-1.53t-.17-1.3h-3.35v-3.25h6.7l.45,4h.25a8.45,8.45,0,0,1,1.33-1.67,10.4,10.4,0,0,1,1.92-1.5,10.22,10.22,0,0,1,2.45-1.08,10,10,0,0,1,2.85-.4,15.1,15.1,0,0,1,4.08.5,6.22,6.22,0,0,1,3,1.77,8.24,8.24,0,0,1,1.78,3.45A21.27,21.27,0,0,1,894,406v14.35h-4V406.76a11.67,11.67,0,0,0-1.34-6.24q-1.35-2.1-4.88-2.1a6.32,6.32,0,0,0-2.52.52,8.68,8.68,0,0,0-2.22,1.37,9.45,9.45,0,0,0-1.74,2,8.27,8.27,0,0,0-1.1,2.37v15.66h-3.85Z" transform="translate(-99.29 -339.58)"/></svg>